<svg width="23" height="22" viewBox="0 0 23 22" fill="none" xmlns="http://www.w3.org/2000/svg">
<path d="M13.5466 17.2517C13.3725 17.2517 13.1983 17.1875 13.0608 17.05C12.795 16.7842 12.795 16.3442 13.0608 16.0783L18.1391 11L13.0608 5.92167C12.795 5.65583 12.795 5.21583 13.0608 4.95C13.3266 4.68417 13.7666 4.68417 14.0325 4.95L19.5966 10.5142C19.8625 10.78 19.8625 11.22 19.5966 11.4858L14.0325 17.05C13.895 17.1875 13.7208 17.2517 13.5466 17.2517Z" fill="#C9C7D1"/>
<path d="M18.955 11.6875H3.52745C3.15162 11.6875 2.83995 11.3758 2.83995 11C2.83995 10.6242 3.15162 10.3125 3.52745 10.3125H18.955C19.3308 10.3125 19.6425 10.6242 19.6425 11C19.6425 11.3758 19.3308 11.6875 18.955 11.6875Z" fill="#C9C7D1"/>
</svg>
