<svg width="70" height="47" viewBox="0 0 70 47" fill="none" xmlns="http://www.w3.org/2000/svg">
<path d="M32.9666 46.6214C32.413 46.6214 31.8727 46.5662 31.3456 46.4557C30.8208 46.3435 30.3093 46.1761 29.8111 45.9535L13.2032 38.7398C12.096 38.25 11.238 37.5937 10.629 36.7708C10.0201 35.9461 9.71559 35.0217 9.71559 33.9975V21.1733L1.74382 17.6333C1.13487 17.3661 0.691994 17.0322 0.415196 16.6314C0.138399 16.2307 0 15.7854 0 15.2956C0 14.8057 0.138399 14.3605 0.415196 13.9597C0.691994 13.5589 1.13487 13.225 1.74382 12.9578L29.8111 0.667928C30.3093 0.445285 30.8208 0.277858 31.3456 0.165646C31.8727 0.0552148 32.413 0 32.9666 0C33.5202 0 34.0605 0.0552148 34.5875 0.165646C35.1123 0.277858 35.6238 0.445285 36.1221 0.667928L67.76 14.5608C68.3136 14.7835 68.7432 15.1059 69.0488 15.528C69.3521 15.9519 69.5038 16.4088 69.5038 16.8986V33.9975C69.5038 34.7545 69.185 35.3886 68.5472 35.8998C67.9117 36.4128 67.1234 36.6693 66.1823 36.6693C65.2411 36.6693 64.4528 36.4128 63.8173 35.8998C63.1796 35.3886 62.8607 34.7545 62.8607 33.9975V18.2344L56.2176 21.1733V33.9975C56.2176 35.0217 55.9131 35.9461 55.3041 36.7708C54.6952 37.5937 53.8371 38.25 52.7299 38.7398L36.1221 45.9535C35.6238 46.1761 35.1123 46.3435 34.5875 46.4557C34.0605 46.5662 33.5202 46.6214 32.9666 46.6214ZM32.9666 25.1809L55.7193 15.2956L32.9666 5.41022L10.2138 15.2956L32.9666 25.1809ZM32.9666 41.278L49.5744 34.0643V23.9786L36.2051 29.9232C35.7069 30.1458 35.181 30.3124 34.6274 30.4228C34.0738 30.535 33.5202 30.5911 32.9666 30.5911C32.413 30.5911 31.8594 30.535 31.3058 30.4228C30.7522 30.3124 30.2263 30.1458 29.728 29.9232L16.3587 23.9786V34.0643L32.9666 41.278Z" fill="white"/>
</svg>
