<svg width="50" height="32" viewBox="0 0 50 32" fill="none" xmlns="http://www.w3.org/2000/svg">
<path d="M34.3417 16.0639L47.1562 5.86559V26.1458L34.3417 16.0639ZM17.8292 17.791L22.3292 21.3692C23.0354 21.9188 23.9562 22.2508 24.9625 22.2508H24.9979H24.9958H25.025C26.0333 22.2508 26.9542 21.9169 27.6687 21.3634L27.6625 21.3672L32.1625 17.7891L45.8417 28.5503H4.15625L17.8292 17.791ZM4.1375 3.44769H45.8667L25.8229 19.394C25.5976 19.5573 25.3186 19.646 25.0312 19.6459H25.0021H25.0042H24.975C24.6866 19.6462 24.4067 19.5567 24.1812 19.3921L24.1833 19.394L4.1375 3.44769ZM2.84375 5.86368L15.6562 16.062L2.84375 26.1382V5.86368ZM47.8438 1.20536C47.3438 0.976359 46.7562 0.842773 46.1333 0.842773H3.87292C3.26908 0.842906 2.67355 0.971608 2.13333 1.21872L2.15625 1.20918C1.50953 1.50137 0.964891 1.9534 0.583863 2.51421C0.202835 3.07501 0.000598642 3.72224 0 4.38279L0 27.6114C0.00110292 28.5515 0.409276 29.4528 1.13496 30.1175C1.86064 30.7823 2.84456 31.1562 3.87083 31.1572H46.1271C47.1534 31.1562 48.1373 30.7823 48.863 30.1175C49.5886 29.4528 49.9968 28.5515 49.9979 27.6114V4.38279C49.9979 2.99541 49.125 1.79314 47.8542 1.21491L47.8312 1.20536H47.8438Z" fill="white"/>
</svg>
