<svg width="50" height="46" viewBox="0 0 50 46" fill="none" xmlns="http://www.w3.org/2000/svg">
<mask id="mask0_62_141" style="mask-type:luminance" maskUnits="userSpaceOnUse" x="0" y="0" width="50" height="46">
<path d="M0 0H50V45.8008H0V0Z" fill="white"/>
</mask>
<g mask="url(#mask0_62_141)">
<path fill-rule="evenodd" clip-rule="evenodd" d="M25 0C11.1875 0 0 10.2479 0 22.9004C0 33.0338 7.15625 41.5928 17.0938 44.6271C18.3438 44.8275 18.8125 44.1405 18.8125 43.5394C18.8125 42.9955 18.7812 41.1921 18.7812 39.2742C12.5 40.3333 10.875 37.8715 10.375 36.5834C10.0938 35.925 8.875 33.8926 7.8125 33.3487C6.9375 32.9193 5.6875 31.8602 7.78125 31.8315C9.75 31.8029 11.1562 33.4918 11.625 34.1788C13.875 37.6425 17.4687 36.6693 18.9062 36.0681C19.125 34.5796 19.7812 33.5777 20.5 33.0052C14.9375 32.4327 9.125 30.4575 9.125 21.6981C9.125 19.2077 10.0938 17.1467 11.6875 15.5436C11.4375 14.9711 10.5625 12.6238 11.9375 9.47504C11.9375 9.47504 14.0312 8.8739 18.8125 11.8223C20.8125 11.3071 22.9375 11.0494 25.0625 11.0494C27.1875 11.0494 29.3125 11.3071 31.3125 11.8223C36.0938 8.84528 38.1875 9.47504 38.1875 9.47504C39.5625 12.6238 38.6875 14.9711 38.4375 15.5436C40.0312 17.1467 41 19.1791 41 21.6981C41 30.4861 35.1562 32.4327 29.5937 33.0052C30.5 33.7208 31.2812 35.0948 31.2812 37.2418C31.2812 40.3047 31.25 42.7665 31.25 43.5394C31.25 44.1405 31.7187 44.8561 32.9688 44.6271C37.9316 43.0923 42.2441 40.1705 45.2993 36.273C48.3545 32.3755 49.9985 27.6986 50 22.9004C50 10.2479 38.8125 0 25 0Z" fill="white"/>
</g>
</svg>
