<svg width="46" height="42" viewBox="0 0 46 42" fill="none" xmlns="http://www.w3.org/2000/svg">
<path fill-rule="evenodd" clip-rule="evenodd" d="M5.66791e-07 3.50758C5.66791e-07 2.57731 0.403429 1.68515 1.12154 1.02735C1.83965 0.369552 2.81361 4.67609e-06 3.82917 4.67609e-06H42C42.5033 -0.000748273 43.0018 0.0894362 43.467 0.265395C43.9321 0.441353 44.3549 0.69963 44.7109 1.02544C45.067 1.35125 45.3494 1.73819 45.542 2.16411C45.7346 2.59003 45.8336 3.04657 45.8333 3.50758V38.4727C45.8339 38.9338 45.7352 39.3904 45.5429 39.8166C45.3505 40.2427 45.0684 40.6299 44.7125 40.956C44.3567 41.2822 43.9341 41.5408 43.469 41.7172C43.004 41.8936 42.5055 41.9843 42.0021 41.9841H3.82917C3.32614 41.9841 2.82804 41.8933 2.36333 41.7169C1.89862 41.5405 1.4764 41.2819 1.1208 40.956C0.765202 40.6301 0.483192 40.2432 0.29088 39.8174C0.0985693 39.3917 -0.000273116 38.9353 5.66791e-07 38.4746V3.50758ZM18.1417 16.0074H24.3479V18.8623C25.2437 17.2211 27.5354 15.744 30.9792 15.744C37.5812 15.744 39.1458 19.0131 39.1458 25.011V36.1215H32.4646V26.3774C32.4646 22.9615 31.5687 21.034 29.2937 21.034C26.1375 21.034 24.825 23.1122 24.825 26.3774V36.1215H18.1417V16.0074ZM6.68333 35.8601H13.3667V15.744H6.68333V35.8582V35.8601ZM14.3229 9.18306C14.3355 9.70724 14.2337 10.2284 14.0234 10.7161C13.8131 11.2037 13.4986 11.648 13.0984 12.0228C12.6981 12.3976 12.2202 12.6954 11.6926 12.8987C11.165 13.102 10.5984 13.2067 10.026 13.2067C9.45367 13.2067 8.88706 13.102 8.35947 12.8987C7.83188 12.6954 7.35393 12.3976 6.95368 12.0228C6.55344 11.648 6.23894 11.2037 6.02867 10.7161C5.81839 10.2284 5.71657 9.70724 5.72917 9.18306C5.7539 8.15417 6.21747 7.17506 7.0206 6.45541C7.82372 5.73575 8.90255 5.33278 10.026 5.33278C11.1495 5.33278 12.2284 5.73575 13.0315 6.45541C13.8346 7.17506 14.2982 8.15417 14.3229 9.18306Z" fill="white"/>
</svg>
