<svg width="47" height="44" viewBox="0 0 47 44" fill="none" xmlns="http://www.w3.org/2000/svg">
<path d="M20.8213 11.0087L13.7734 3.55651C12.9609 2.69774 11.4713 2.70156 10.5276 3.56796L4.73173 8.88657C3.00673 10.4686 2.51298 12.8178 3.5109 14.7014C9.47261 26.0084 19.4277 35.1401 31.763 40.617C33.8171 41.5311 36.3797 41.0788 38.1047 39.4968L43.9547 34.1285C44.9026 33.2602 44.9046 31.8881 43.9588 31.1438L35.7921 24.7222C34.938 24.0504 33.6109 24.1382 32.7546 24.9245L29.913 27.5313C29.7675 27.671 29.576 27.763 29.3679 27.7934C29.1598 27.8237 28.9465 27.7906 28.7609 27.6992C24.116 25.2491 20.263 21.715 17.5942 17.457C17.4943 17.2867 17.4581 17.0911 17.4912 16.9001C17.5243 16.7091 17.6249 16.5334 17.7776 16.3998L20.6109 13.8025C21.4692 13.0125 21.563 11.7911 20.8213 11.0068V11.0087Z" stroke="white" stroke-width="4.16667" stroke-linecap="round" stroke-linejoin="round"/>
</svg>
