<svg width="80" height="80" viewBox="0 0 80 80" fill="none" xmlns="http://www.w3.org/2000/svg">
<path d="M72.7001 34.1668C72.5001 34.0334 70.8334 32.7334 67.2334 32.7334C66.3001 32.7334 65.3667 32.8334 64.4334 33.0001C63.7334 28.3334 59.8334 25.9668 59.6667 25.8668L58.7001 25.3001L58.1001 26.2001C57.3001 27.4001 56.6667 28.7668 56.4001 30.1668C55.7334 32.8334 56.1334 35.3668 57.5001 37.5334C55.8667 38.4668 53.2001 38.7001 52.6334 38.7001H8.73341C7.60008 38.7001 6.66675 39.6334 6.66675 40.8001C6.66675 44.6334 7.26675 48.4668 8.60008 52.0668C10.1001 56.0334 12.3667 58.9668 15.2667 60.7668C18.5334 62.7668 23.9001 63.9001 30.0001 63.9001C32.6334 63.9001 35.3667 63.6668 38.0667 63.1668C41.8001 62.5001 45.4001 61.2001 48.7001 59.3001C51.4331 57.7373 53.8794 55.7194 55.9334 53.3334C59.4334 49.4334 61.5001 45.0001 63.0001 41.1668H63.6334C67.4334 41.1668 69.8001 39.6334 71.1001 38.3334C71.9667 37.5334 72.6001 36.5668 73.0667 35.4334L73.3334 34.6334L72.7001 34.1668ZM12.8334 37.4668H18.7001C18.9667 37.4668 19.2334 37.2334 19.2334 36.9334V31.6668C19.2334 31.4001 19.0001 31.1334 18.7001 31.1334H12.8334C12.5334 31.1334 12.3001 31.3668 12.3001 31.6668V36.9334C12.3334 37.2334 12.5334 37.4668 12.8334 37.4668ZM20.9334 37.4668H26.8001C27.0667 37.4668 27.3334 37.2334 27.3334 36.9334V31.6668C27.3334 31.4001 27.1001 31.1334 26.8001 31.1334H20.9334C20.6334 31.1334 20.4001 31.3668 20.4001 31.6668V36.9334C20.4334 37.2334 20.6334 37.4668 20.9334 37.4668ZM29.1667 37.4668H35.0001C35.3334 37.4668 35.5667 37.2334 35.5667 36.9334V31.6668C35.5667 31.4001 35.3667 31.1334 35.0001 31.1334H29.1667C28.9001 31.1334 28.6667 31.3668 28.6667 31.6668V36.9334C28.6667 37.2334 28.8667 37.4668 29.1667 37.4668ZM37.3001 37.4668H43.2001C43.4667 37.4668 43.7001 37.2334 43.7001 36.9334V31.6668C43.7001 31.4001 43.5001 31.1334 43.2001 31.1334H37.3001C37.0334 31.1334 36.8001 31.3668 36.8001 31.6668V36.9334C36.8001 37.2334 37.0334 37.4668 37.3001 37.4668ZM20.9334 30.0001H26.8001C27.0667 30.0001 27.3334 29.7001 27.3334 29.4001V24.1668C27.3334 23.8668 27.1001 23.6334 26.8001 23.6334H20.9334C20.6334 23.6334 20.4001 23.8334 20.4001 24.1668V29.4001C20.4334 29.7001 20.6334 30.0001 20.9334 30.0001ZM29.1667 30.0001H35.0001C35.3334 30.0001 35.5667 29.7001 35.5667 29.4001V24.1668C35.5667 23.8668 35.3667 23.6334 35.0001 23.6334H29.1667C28.9001 23.6334 28.6667 23.8334 28.6667 24.1668V29.4001C28.6667 29.7001 28.8667 30.0001 29.1667 30.0001ZM37.3001 30.0001H43.2001C43.4667 30.0001 43.7001 29.7001 43.7001 29.4001V24.1668C43.7001 23.8668 43.4667 23.6334 43.2001 23.6334H37.3001C37.0334 23.6334 36.8001 23.8334 36.8001 24.1668V29.4001C36.8001 29.7001 37.0334 30.0001 37.3001 30.0001ZM37.3001 22.4001H43.2001C43.4667 22.4001 43.7001 22.1668 43.7001 21.8668V16.6668C43.7001 16.3334 43.4667 16.1001 43.2001 16.1001H37.3001C37.0334 16.1001 36.8001 16.3001 36.8001 16.6668V21.8668C36.8001 22.1334 37.0334 22.4001 37.3001 22.4001ZM45.5001 37.4668H51.3667C51.6667 37.4668 51.9001 37.2334 51.9001 36.9334V31.6668C51.9001 31.4001 51.6667 31.1334 51.3667 31.1334H45.5001C45.2334 31.1334 45.0001 31.3668 45.0001 31.6668V36.9334C45.0001 37.2334 45.2334 37.4668 45.5001 37.4668Z" fill="white"/>
</svg>
