<svg width="80" height="80" viewBox="0 0 80 80" fill="none" xmlns="http://www.w3.org/2000/svg">
<path d="M60.3124 29.375C62.4562 27.4214 63.9588 24.8651 64.623 22.0418C65.2871 19.2186 65.0818 16.2604 64.0338 13.556C62.9859 10.8516 61.1443 8.52746 58.7512 6.88889C56.3581 5.25032 53.5253 4.37398 50.6249 4.375H29.3749C26.4746 4.37398 23.6418 5.25032 21.2486 6.88889C18.8555 8.52746 17.014 10.8516 15.966 13.556C14.9181 16.2604 14.7127 19.2186 15.3769 22.0418C16.041 24.8651 17.5437 27.4214 19.6874 29.375C18.2091 30.7221 17.0283 32.3629 16.2202 34.1925C15.4122 36.022 14.9949 38 14.9949 40C14.9949 42 15.4122 43.978 16.2202 45.8076C17.0283 47.6371 18.2091 49.2779 19.6874 50.625C17.9204 52.2368 16.5835 54.264 15.7978 56.523C15.012 58.782 14.8024 61.2013 15.1878 63.5617C15.5732 65.9222 16.5414 68.1492 18.0048 70.0409C19.4682 71.9327 21.3805 73.4294 23.5684 74.3955C25.7563 75.3616 28.1507 75.7665 30.5346 75.5735C32.9185 75.3806 35.2166 74.5959 37.2207 73.2905C39.2247 71.9852 40.8714 70.2004 42.0115 68.0979C43.1516 65.9954 43.7492 63.6417 43.7499 61.25V52.625C45.8554 53.7837 48.2217 54.386 50.6249 54.375C53.5253 54.376 56.3581 53.4997 58.7512 51.8611C61.1443 50.2225 62.9859 47.8984 64.0338 45.194C65.0818 42.4896 65.2871 39.5314 64.623 36.7082C63.9588 33.8849 62.4562 31.3286 60.3124 29.375ZM57.4999 18.75C57.4917 20.5708 56.7647 22.3147 55.4772 23.6023C54.1897 24.8898 52.4458 25.6168 50.6249 25.625H43.7499V11.875H50.6249C52.4458 11.8832 54.1897 12.6102 55.4772 13.8977C56.7647 15.1853 57.4917 16.9292 57.4999 18.75ZM22.4999 18.75C22.5081 16.9292 23.2351 15.1853 24.5226 13.8977C25.8102 12.6102 27.5541 11.8832 29.3749 11.875H36.2499V25.625H29.3749C27.5541 25.6168 25.8102 24.8898 24.5226 23.6023C23.2351 22.3147 22.5081 20.5708 22.4999 18.75ZM22.4999 40C22.5081 38.1792 23.2351 36.4353 24.5226 35.1477C25.8102 33.8602 27.5541 33.1332 29.3749 33.125H36.2499V46.875H29.3749C27.5541 46.8668 25.8102 46.1398 24.5226 44.8523C23.2351 43.5647 22.5081 41.8208 22.4999 40ZM36.2499 61.25C36.2499 62.6097 35.8467 63.939 35.0913 65.0695C34.3358 66.2001 33.2621 67.0813 32.0059 67.6017C30.7496 68.122 29.3673 68.2582 28.0337 67.9929C26.7001 67.7276 25.475 67.0728 24.5136 66.1114C23.5521 65.1499 22.8973 63.9249 22.632 62.5912C22.3667 61.2576 22.5029 59.8753 23.0232 58.6191C23.5436 57.3628 24.4248 56.2891 25.5554 55.5336C26.686 54.7782 28.0152 54.375 29.3749 54.375H36.2499V61.25ZM50.6249 46.875C48.8016 46.875 47.0529 46.1507 45.7636 44.8614C44.4742 43.572 43.7499 41.8234 43.7499 40C43.7499 38.1766 44.4742 36.428 45.7636 35.1386C47.0529 33.8493 48.8016 33.125 50.6249 33.125C52.4483 33.125 54.197 33.8493 55.4863 35.1386C56.7756 36.428 57.4999 38.1766 57.4999 40C57.4999 41.8234 56.7756 43.572 55.4863 44.8614C54.197 46.1507 52.4483 46.875 50.6249 46.875Z" fill="white"/>
</svg>
