<svg width="88" height="68" viewBox="0 0 88 68" fill="none" xmlns="http://www.w3.org/2000/svg">
<path d="M11.75 1.75H76.25V66.25H11.75V1.75ZM28.6992 55.6433C30.1325 58.6892 32.9633 61.1975 37.8008 61.1975C43.1758 61.1975 46.8667 58.3308 46.8667 52.06V31.3483H40.775V51.9167C40.775 54.9983 39.5208 55.7867 37.55 55.7867C35.4717 55.7867 34.6117 54.3533 33.6442 52.6692L28.6992 55.6433ZM50.1275 54.9983C51.9192 58.51 55.5383 61.1975 61.2 61.1975C66.9333 61.1975 71.2333 58.2233 71.2333 52.7408C71.2333 47.6883 68.3308 45.4308 63.1708 43.2092L61.6658 42.5642C59.05 41.4533 57.9392 40.7008 57.9392 38.9092C57.9392 37.44 59.05 36.2933 60.8417 36.2933C62.5617 36.2933 63.7083 37.0458 64.7475 38.9092L69.4417 35.7917C67.4708 32.3517 64.6758 31.0258 60.8417 31.0258C55.4308 31.0258 51.955 34.4658 51.955 39.0167C51.955 43.9617 54.8575 46.2908 59.2292 48.1542L60.7342 48.7992C63.5292 50.0175 65.1775 50.77 65.1775 52.8483C65.1775 54.5683 63.565 55.8225 61.0567 55.8225C58.0825 55.8225 56.3625 54.2817 55.0725 52.1317L50.1275 54.9983Z" fill="white"/>
</svg>
