<svg width="80" height="80" viewBox="0 0 80 80" fill="none" xmlns="http://www.w3.org/2000/svg">
<g clip-path="url(#clip0_201_461)">
<path d="M39.9933 79.9999C38.9233 79.9999 37.8566 79.7199 36.9199 79.1765L27.1333 73.3865C25.6733 72.5699 26.3866 72.2799 26.8666 72.1099C28.8166 71.4332 29.2099 71.2765 31.2933 70.0965C31.5099 69.9732 31.7966 70.0199 32.0199 70.1532L39.5399 74.6165C39.6796 74.6907 39.8352 74.7294 39.9933 74.7294C40.1513 74.7294 40.307 74.6907 40.4466 74.6165L69.7633 57.6965C69.8999 57.6142 70.0129 57.4978 70.0912 57.3588C70.1695 57.2197 70.2104 57.0628 70.2099 56.9032V23.0699C70.2097 22.9075 70.1675 22.7479 70.0875 22.6066C70.0075 22.4653 69.8924 22.347 69.7533 22.2632L40.4499 5.35655C40.3119 5.27948 40.1564 5.23902 39.9983 5.23902C39.8402 5.23902 39.6847 5.27948 39.5466 5.35655L10.2499 22.2665C10.1103 22.3495 9.99432 22.4669 9.91317 22.6076C9.83203 22.7483 9.78844 22.9075 9.78661 23.0699V56.9032C9.78726 57.0632 9.83053 57.2201 9.91197 57.3578C9.99341 57.4954 10.1101 57.6089 10.2499 57.6865L18.2799 62.3265C22.6366 64.5065 25.3066 61.9399 25.3066 59.3599V25.9565C25.3066 25.4832 25.6866 25.1132 26.1599 25.1132H29.8766C30.3399 25.1132 30.7266 25.4865 30.7266 25.9565V59.3599C30.7266 65.1765 27.5599 68.5099 22.0466 68.5099C20.3533 68.5099 19.0166 68.5099 15.2933 66.6732L7.59994 62.2499C6.66481 61.7053 5.88887 60.925 5.34958 59.9868C4.8103 59.0486 4.52653 57.9854 4.52661 56.9032V23.0699C4.52661 20.8732 5.70328 18.8199 7.59994 17.7265L36.9166 0.786551C37.861 0.269844 38.9201 -0.000976562 39.9966 -0.000976562C41.0731 -0.000976563 42.1323 0.269844 43.0766 0.786551L72.3899 17.7265C74.2899 18.8232 75.4699 20.8732 75.4699 23.0699V56.9032C75.468 57.9857 75.1827 59.0489 74.6423 59.9869C74.102 60.9249 73.3254 61.7051 72.3899 62.2499L43.0766 79.1765C42.1433 79.7199 41.0799 79.9999 39.9933 79.9999ZM63.6633 46.6432C63.6633 40.3099 59.3833 38.6232 50.3733 37.4332C41.2699 36.2299 40.3433 35.6066 40.3433 33.4766C40.3433 31.7166 41.1266 29.3666 47.8699 29.3666C53.8933 29.3666 56.1133 30.6632 57.0266 34.7232C57.0682 34.9108 57.1724 35.0787 57.322 35.1992C57.4716 35.3197 57.6578 35.3858 57.8499 35.3866H61.6533C61.7694 35.3854 61.8842 35.3609 61.9907 35.3145C62.0972 35.2681 62.1933 35.2008 62.2733 35.1166C62.3538 35.0291 62.4152 34.9259 62.4537 34.8134C62.4921 34.7009 62.5068 34.5817 62.4966 34.4632C61.9066 27.4699 57.2599 24.2099 47.8699 24.2099C39.5099 24.2099 34.5233 27.7366 34.5233 33.6532C34.5233 40.0699 39.4833 41.8432 47.5066 42.6366C57.1066 43.5766 57.8499 44.9799 57.8499 46.8666C57.8499 50.1432 55.2199 51.5399 49.0433 51.5399C41.2866 51.5399 39.5799 49.5932 39.0066 45.7332C38.9748 45.5327 38.8722 45.3503 38.7176 45.2188C38.5629 45.0874 38.3663 45.0156 38.1633 45.0166H34.3733C34.2621 45.0157 34.1519 45.0369 34.049 45.0789C33.9461 45.1209 33.8526 45.1829 33.7738 45.2614C33.6951 45.3398 33.6327 45.4331 33.5902 45.5359C33.5478 45.6386 33.5262 45.7487 33.5266 45.8599C33.5266 50.7999 36.2133 56.6865 49.0433 56.6865C58.3366 56.6899 63.6633 53.0332 63.6633 46.6432Z" fill="white"/>
</g>
<defs>
<clipPath id="clip0_201_461">
<rect width="80" height="80" fill="white"/>
</clipPath>
</defs>
</svg>
