<svg width="80" height="80" viewBox="0 0 80 80" fill="none" xmlns="http://www.w3.org/2000/svg">
<g clip-path="url(#clip0_201_497)">
<path d="M80.43 78.0399L78.7367 76.4266C77.9292 75.3572 77.0267 74.3632 76.04 73.4566L76.0233 73.4433C75.0278 72.5388 73.9933 71.6788 72.92 70.8633C72.06 70.2722 70.8778 69.5599 69.3733 68.7266C68.1526 68.1847 67.1796 67.2046 66.6467 65.9799L66.6333 65.9466L66.4733 65.8666C67.18 65.7966 67.8267 65.6666 68.4467 65.4833L68.37 65.5033L70.27 64.9799C71.0567 64.7333 71.9667 64.5733 72.91 64.5366H72.93C73.9233 64.4966 74.86 64.3366 75.7533 64.0733L75.67 64.0933C76.1011 63.9866 76.5444 63.8655 77 63.7299C77.4556 63.5944 77.8456 63.4733 78.17 63.3666V62.8033C77.8478 62.321 77.4578 61.7699 77 61.1499C76.5754 60.5698 76.0793 60.0457 75.5233 59.5899L75.5067 59.5766C74.1089 58.341 72.6611 57.1455 71.1633 55.9899C69.7592 54.899 68.3007 53.8799 66.7933 52.9366L66.5667 52.8033C65.6973 52.235 64.7766 51.7496 63.8167 51.3533L63.7033 51.3133C62.7078 50.9088 61.7267 50.4655 60.76 49.9833C60.4118 49.8127 60.0464 49.6797 59.67 49.5866L59.6333 49.5799C59.2573 49.5051 58.9171 49.3069 58.6667 49.0166L58.6633 49.0133C58.1905 48.3855 57.7933 47.7041 57.48 46.9833L57.4533 46.9166C57.1311 46.1633 56.7822 45.4399 56.4067 44.7466C55.6 43.1866 54.82 41.601 54.0667 39.9899C53.3133 38.3788 52.59 36.7655 51.8967 35.1499C51.4144 34.0744 50.9711 32.9999 50.5667 31.9266C50.1576 30.8325 49.643 29.7809 49.03 28.7866L49.0733 28.8633C47.745 26.5859 46.2627 24.4019 44.6367 22.3266L44.73 22.4533C43.2421 20.5688 41.6166 18.7973 39.8667 17.1533L39.84 17.1299C38.1191 15.5153 36.3025 14.0059 34.4 12.6099L34.2367 12.4933C32.2456 11.0466 30.0678 9.62215 27.7033 8.21993C26.6983 7.63372 25.6153 7.19268 24.4867 6.90993L24.4 6.88993L20.69 5.96326L18.5933 5.80326C17.8955 5.74993 17.1967 5.72326 16.4967 5.72326C16.0246 5.47621 15.5902 5.16305 15.2067 4.79326C14.8359 4.4406 14.4429 4.11215 14.03 3.80993L13.9967 3.7866C11.8314 2.53714 9.55088 1.49901 7.18666 0.686597L6.90333 0.599931C6.31535 0.263536 5.65923 0.0637071 4.98356 0.0152388C4.30789 -0.0332296 3.62997 0.0709045 2.99999 0.319931L3.02999 0.309931C2.40965 0.553203 1.85056 0.93024 1.39252 1.4142C0.934491 1.89816 0.588777 2.47714 0.379995 3.10993L0.369995 3.14326C0.0162708 3.9927 -0.0986512 4.92263 0.0376416 5.83262C0.173935 6.74261 0.556262 7.59807 1.14333 8.3066L1.13666 8.2966C2.34555 9.90771 3.27222 11.1744 3.91666 12.0966C4.39888 12.7433 4.89666 13.4155 5.40999 14.1133C5.87999 14.7399 6.29666 15.4566 6.63333 16.2133L6.65999 16.2833C6.84666 16.6799 7.00999 17.1533 7.12999 17.6399L7.13999 17.6933C7.24666 18.151 7.38111 18.6488 7.54333 19.1866C8.02555 20.4222 8.48222 21.6888 8.91333 22.9866C9.38333 24.4033 9.90333 25.6033 10.5067 26.7466L10.4433 26.6133C10.7655 27.2044 11.0889 27.7822 11.4133 28.3466C11.7378 28.911 12.0867 29.4622 12.46 29.9999C12.6717 30.3194 12.9448 30.5936 13.2633 30.8066L13.2733 30.8133C13.4403 30.933 13.5777 31.0892 13.6753 31.27C13.7729 31.4507 13.8281 31.6513 13.8367 31.8566C13.4434 32.4408 13.1954 33.1138 13.1133 33.8133L13.11 33.8333C13.0054 34.6184 12.8348 35.3934 12.6 36.1499L12.6267 36.0499C11.8425 38.4506 11.4476 40.9612 11.4567 43.4866C11.4567 44.3466 11.5 45.1933 11.59 46.0299L11.58 45.9266C11.78 49.1199 12.7433 52.0533 14.2867 54.5933L14.24 54.5099C14.8967 55.4933 15.6 56.3499 16.3767 57.1333C16.8279 57.6408 17.4357 57.983 18.1036 58.1056C18.7716 58.2282 19.4613 58.1241 20.0633 57.8099L20.0467 57.8166C20.6243 57.613 21.1283 57.2421 21.4945 56.7513C21.8608 56.2604 22.0727 55.6716 22.1033 55.0599V55.0533C22.2633 53.4733 22.5033 52.0599 22.8333 50.6799L22.79 50.9033C22.8745 50.6784 22.9174 50.4401 22.9167 50.1999L22.91 50.0499V50.0566C22.8833 49.8144 23.0311 49.5855 23.3533 49.3699V49.5299C23.6755 50.2833 24.0111 51.0355 24.36 51.7866C24.7089 52.5377 25.0711 53.2899 25.4467 54.0433C26.43 55.5399 27.4733 56.8466 28.62 58.0499L28.61 58.0399C29.7507 59.2717 31.0089 60.3892 32.3667 61.3766L32.44 61.4266C33.1467 61.9666 33.7667 62.5499 34.3267 63.1866L34.34 63.1999C34.8667 63.8199 35.4967 64.3299 36.2067 64.7133L36.24 64.7299V64.6499H36.4C36.2735 64.3668 36.0644 64.1286 35.8 63.9666L35.7933 63.9633C35.5488 63.8284 35.3138 63.677 35.09 63.5099L35.1067 63.5199C34.6244 63.0377 34.1267 62.4999 33.6133 61.9066C33.1 61.3133 32.63 60.7488 32.2033 60.2133C31.0744 58.6533 29.9978 57.0233 28.9733 55.3233C27.9489 53.6233 26.9811 51.8955 26.07 50.1399C25.6389 49.2799 25.2222 48.3933 24.82 47.4799C24.4178 46.5666 24.0278 45.6799 23.65 44.8199C23.479 44.4704 23.3707 44.0936 23.33 43.7066V43.6899C23.321 43.5068 23.2647 43.3292 23.1665 43.1744C23.0684 43.0196 22.9317 42.8928 22.77 42.8066L22.7633 42.8033C22.3817 43.4593 21.9253 44.0689 21.4033 44.6199L21.4067 44.6166C20.8713 45.1807 20.4402 45.8353 20.1333 46.5499L20.1167 46.5933C19.6177 47.8243 19.2935 49.1191 19.1533 50.4399L19.1467 50.5033C18.9867 51.9277 18.8255 53.3922 18.6633 54.8966L18.5033 54.9766L18.4233 55.0566C18.0061 54.9729 17.6128 54.7968 17.2725 54.5413C16.9322 54.2858 16.6534 53.9573 16.4567 53.5799L16.45 53.5633C16.0455 52.7833 15.6833 52.0166 15.3633 51.2633C14.4901 48.9786 14.0133 46.5617 13.9533 44.1166V44.0866C13.7802 41.4739 14.1037 38.8521 14.9067 36.3599L14.8667 36.5066C15.0267 35.9155 15.3756 34.9199 15.9133 33.5199C16.4511 32.1199 16.5589 31.1522 16.2367 30.6166C16.0777 30.0865 15.7713 29.6126 15.3533 29.2499L15.35 29.2466C14.9516 28.9015 14.5784 28.5283 14.2333 28.1299L14.2233 28.1166C13.8478 27.5744 13.4855 26.9966 13.1367 26.3833C12.7878 25.7699 12.4789 25.1655 12.21 24.5699C11.5893 23.1012 11.0616 21.5949 10.63 20.0599L10.5567 19.7633C10.0824 18.0481 9.47383 16.3729 8.73666 14.7533L8.82333 14.9666C8.47846 14.1751 8.04216 13.4267 7.52333 12.7366L7.54333 12.7633C7.00111 12.0388 6.51666 11.3533 6.08999 10.7066C5.54777 10.0088 5.00999 9.3366 4.47666 8.68993C3.9209 8.01681 3.44444 7.28198 3.05666 6.49993L3.02666 6.43326C2.85611 6.08505 2.72314 5.71965 2.62999 5.34326L2.62333 5.3066C2.56606 5.11723 2.55101 4.91762 2.57923 4.72181C2.60745 4.52599 2.67825 4.33875 2.78666 4.17326L2.78333 4.17993C2.81897 3.99969 2.9031 3.83258 3.02666 3.6966C3.16162 3.57598 3.32606 3.49318 3.50333 3.4566H3.50999C3.77299 3.28603 4.07532 3.18575 4.38812 3.16532C4.70091 3.1449 5.01372 3.20501 5.29666 3.33993L5.28666 3.3366C6.01666 3.54326 6.60666 3.74993 7.18333 3.9866L7.06333 3.94326C8.08333 4.37437 9.02444 4.79104 9.88666 5.19326C10.88 5.6666 11.7267 6.1666 12.5267 6.72326L12.4667 6.68326C12.8978 6.95215 13.3278 7.24771 13.7567 7.56993C14.1855 7.89215 14.6422 8.21549 15.1267 8.53993H16.2567C17.1167 8.53993 18.03 8.58104 18.9967 8.66326C19.9733 8.73993 20.8767 8.92326 21.7367 9.20993L21.6567 9.1866C23.26 9.66326 24.6367 10.2266 25.9433 10.9033L25.8067 10.8399C27.1244 11.511 28.3744 12.2233 29.5567 12.9766C31.52 14.1999 33.2167 15.4533 34.8133 16.8233L34.7567 16.7766C36.4233 18.2033 37.9367 19.6666 39.3567 21.2133L39.39 21.2533C40.7767 22.7666 42.1 24.4099 43.31 26.1333L43.4133 26.2899C44.5267 27.8633 45.65 29.6833 46.66 31.5699L46.8 31.8533C47.0976 32.4317 47.3582 33.0284 47.58 33.6399L47.6167 33.7499C47.8322 34.3677 48.0733 35.001 48.34 35.6499C48.9311 36.9944 49.5644 38.351 50.24 39.7199C50.9155 41.0888 51.5489 42.4199 52.14 43.7133L53.9133 47.5833C54.5367 48.9366 55.2333 50.1033 56.0433 51.1799L56.0067 51.1299C56.6833 51.8533 57.5867 52.3599 58.6 52.5366L58.6267 52.5399C59.8533 52.8466 60.8867 53.1933 61.8867 53.6033L61.73 53.5466C62.2067 53.7633 62.82 53.9933 63.45 54.1966L63.5833 54.2333C64.29 54.4499 64.9033 54.7366 65.4667 55.0966L65.4367 55.0799C66.5267 55.6899 67.45 56.2899 68.33 56.9433L68.26 56.8933C69.1733 57.5644 70.0867 58.1977 71 58.7933C71.4311 59.1155 72.1544 59.5855 73.17 60.2033C74.1856 60.821 74.7233 61.3988 74.7833 61.9366C72.741 61.8658 70.6964 61.9628 68.67 62.2266L68.8567 62.2066C67.1643 62.4264 65.5073 62.8633 63.9267 63.5066L64.06 63.4599C63.6411 63.6376 63.2086 63.7814 62.7667 63.8899L62.7033 63.9033C62.4737 63.9362 62.2618 64.045 62.1011 64.2123C61.9404 64.3796 61.8403 64.5959 61.8167 64.8266C62.02 65.0799 62.1833 65.3766 62.2933 65.6966L62.3 65.7166C62.4133 66.0566 62.55 66.3499 62.7167 66.6233L62.7067 66.6033C63.1033 67.3066 63.53 67.9133 64.01 68.4733L63.9967 68.4566C64.4667 69.0366 64.9967 69.5399 65.5833 69.9699L65.6067 69.9866C66.1489 70.4177 66.7133 70.861 67.3 71.3166C67.8367 71.7366 68.4433 72.1499 69.0733 72.5233L69.1533 72.5666C70.1 73.1466 71.2 73.6999 72.3467 74.1633L72.5 74.2166C73.7467 74.7166 74.8167 75.2966 75.81 75.9866L75.7567 75.9499C76.4033 76.3255 77.0478 76.7421 77.69 77.1999C78.3322 77.6577 78.95 78.101 79.5433 78.5299C79.7867 78.7699 80 79.0366 80.18 79.3266L80.19 79.3433C80.4974 79.6978 80.9245 79.9268 81.39 79.9866H81.4V79.8266C81.1052 79.6035 80.8902 79.2915 80.7867 78.9366L80.7833 78.9233C80.707 78.6023 80.5811 78.2953 80.41 78.0133L80.4167 78.0266L80.43 78.0399ZM18.51 14.0233C18.0789 14.0233 17.6755 14.0366 17.3 14.0633C16.9336 14.0868 16.5717 14.1574 16.2233 14.2733L16.2533 14.2633V14.3433H16.4133C16.6289 14.6655 16.9 15.0277 17.2267 15.4299C17.5533 15.8322 17.8489 16.2222 18.1133 16.5999L19.4033 19.2599L19.5633 19.1799C19.9387 18.9097 20.2299 18.5387 20.4033 18.1099L20.41 18.0933C20.5833 17.6299 20.6833 17.0899 20.6833 16.5299L20.68 16.3499V16.3599C20.5288 16.2129 20.4067 16.0388 20.32 15.8466L20.3167 15.8366L20.0467 15.2299C19.8738 14.9538 19.6265 14.732 19.3333 14.5899L19.3233 14.5866C19.0238 14.4436 18.7492 14.2534 18.51 14.0233Z" fill="white"/>
</g>
<defs>
<clipPath id="clip0_201_497">
<rect width="80" height="80" fill="white"/>
</clipPath>
</defs>
</svg>
